<?xml version="1.0" encoding="UTF-8" standalone="no"?>
<svg
   viewBox="0 0 50 50"
   version="1.1"
   id="svg4"
   sodipodi:docname="logout-active-btn.svg"
   width="50"
   height="50"
   inkscape:version="1.1.2 (b8e25be833, 2022-02-05)"
   xmlns:inkscape="http://www.inkscape.org/namespaces/inkscape"
   xmlns:sodipodi="http://sodipodi.sourceforge.net/DTD/sodipodi-0.dtd"
   xmlns="http://www.w3.org/2000/svg"
   xmlns:svg="http://www.w3.org/2000/svg">
  <defs
     id="defs8" />
  <sodipodi:namedview
     id="namedview6"
     pagecolor="#ffffff"
     bordercolor="#666666"
     borderopacity="1.0"
     inkscape:pageshadow="2"
     inkscape:pageopacity="0.0"
     inkscape:pagecheckerboard="0"
     showgrid="false"
     inkscape:zoom="11.234375"
     inkscape:cx="45.974965"
     inkscape:cy="22.164117"
     inkscape:window-width="1920"
     inkscape:window-height="1057"
     inkscape:window-x="-8"
     inkscape:window-y="-8"
     inkscape:window-maximized="1"
     inkscape:current-layer="svg4" />
  <!--! Font Awesome Pro 6.2.0 by @fontawesome - https://fontawesome.com License - https://fontawesome.com/license (Commercial License) Copyright 2022 Fonticons, Inc. -->
  <circle
     style="fill:#ffffff;fill-opacity:1;stroke-width:10;stroke-linecap:square;stroke-linejoin:round"
     id="path847"
     cx="24.999996"
     cy="25.000004"
     r="25" />
  <path
     d="m 20.387168,14.938281 c 1.113076,0 2.012344,-0.89926 2.012344,-2.012336 0,-1.113077 -0.899268,-2.012344 -2.012344,-2.012344 H 16.36248 c -3.332948,0 -6.037024,2.704084 -6.037024,6.037024 v 16.098752 c 0,3.332943 2.704076,6.03703 6.037024,6.03703 h 4.024688 c 1.113076,0 2.012344,-0.899266 2.012344,-2.012343 0,-1.113078 -0.899268,-2.012344 -2.012344,-2.012344 H 16.36248 c -1.113076,0 -2.012344,-0.899265 -2.012344,-2.012343 V 16.950625 c 0,-1.113069 0.899268,-2.012344 2.012344,-2.012344 z m 21.664133,11.155936 c 0.301853,-0.282984 0.471643,-0.67917 0.471643,-1.094216 0,-0.415046 -0.16979,-0.811224 -0.471643,-1.094216 l -9.055548,-8.552458 c -0.440196,-0.415046 -1.081629,-0.52824 -1.635026,-0.289266 -0.55339,0.238966 -0.911839,0.786066 -0.911839,1.383482 v 4.52777 h -8.049376 c -1.113076,0 -2.012344,0.899267 -2.012344,2.012344 v 4.024689 c 0,1.113078 0.899268,2.012344 2.012344,2.012344 h 8.049376 v 4.527773 c 0,0.603703 0.358449,1.14452 0.911839,1.383485 0.553397,0.238967 1.19483,0.125772 1.635026,-0.289273 z"
     id="path2"
     style="fill:#5a9285;stroke-width:0.999996;fill-opacity:1" />
</svg>
